<svg width="100" height="100" viewBox="0 0 100 100" fill="none" xmlns="http://www.w3.org/2000/svg">
<rect width="100" height="100" rx="24" fill="#A01906"/>
<g clip-path="url(#clip0_2521_70)">
<path d="M57.6675 60C74.14 59.9325 80 51.22 80 43.75C79.9984 41.7519 79.3129 39.8146 78.0577 38.2601C76.8024 36.7056 75.0529 35.6275 73.1 35.205C73.8223 33.1725 74.407 31.0936 74.85 28.9825C75.072 27.9017 75.0496 26.785 74.7845 25.714C74.5193 24.643 74.0181 23.6449 73.3175 22.7925C72.6081 21.9188 71.7124 21.2147 70.6959 20.7316C69.6795 20.2484 68.5679 19.9985 67.4425 20H32.5575C31.4316 19.9981 30.3196 20.2479 29.3027 20.731C28.2858 21.2142 27.3897 21.9185 26.68 22.7925C25.9794 23.6449 25.4782 24.643 25.213 25.714C24.9479 26.785 24.9255 27.9017 25.1475 28.9825C25.5893 31.0939 26.174 33.1728 26.8975 35.205C24.9451 35.628 23.1961 36.7063 21.9414 38.2608C20.6866 39.8152 20.0015 41.7523 20 43.75C20 51.22 25.86 59.9325 42.3325 60C42.426 60.5262 42.482 61.0584 42.5 61.5925V70C42.543 70.6678 42.4431 71.337 42.207 71.9631C41.9709 72.5892 41.6041 73.1578 41.1309 73.6309C40.6578 74.1041 40.0892 74.4709 39.4631 74.707C38.837 74.9431 38.1678 75.043 37.5 75H32.5V80H67.5V75H62.52C61.8508 75.0451 61.1797 74.9469 60.5516 74.7118C59.9234 74.4768 59.3527 74.1104 58.8775 73.6371C58.4023 73.1638 58.0336 72.5945 57.796 71.9673C57.5585 71.3401 57.4576 70.6694 57.5 70V61.5925C57.518 61.0584 57.574 60.5262 57.6675 60ZM71.25 40C72.2446 40 73.1984 40.3951 73.9016 41.0984C74.6049 41.8016 75 42.7554 75 43.75C75 48.87 70.9225 54.3125 59.69 54.9375C60.1321 54.3568 60.6424 53.8314 61.21 53.3725C65.472 49.7153 68.855 45.1446 71.1075 40H71.25ZM25 43.75C25 42.7554 25.3951 41.8016 26.0983 41.0984C26.8016 40.3951 27.7554 40 28.75 40H28.8925C31.1432 45.1449 34.5255 49.7159 38.7875 53.3725C39.3558 53.8313 39.867 54.3568 40.31 54.9375C29.0775 54.3125 25 48.87 25 43.75ZM52.5 61.5925V70C52.4718 71.7433 52.891 73.4648 53.7175 75H46.2825C47.109 73.4648 47.5282 71.7433 47.5 70V61.5925C47.5424 59.2805 47.0616 56.9888 46.0936 54.8887C45.1256 52.7886 43.6955 50.9345 41.91 49.465C35.75 44.54 31.5 35.125 30.045 27.975C29.9703 27.622 29.9764 27.2567 30.063 26.9064C30.1496 26.5561 30.3144 26.23 30.545 25.9525C30.7877 25.6531 31.0945 25.4121 31.4429 25.2473C31.7912 25.0824 32.1721 24.9979 32.5575 25H67.4425C67.8258 24.9998 68.2042 25.0852 68.5503 25.25C68.8963 25.4148 69.2011 25.6548 69.4425 25.9525C69.6725 26.2304 69.8368 26.5565 69.9234 26.9067C70.01 27.2568 70.0165 27.622 69.9425 27.975C68.4775 35.125 64.2375 44.54 58.075 49.475C56.2939 50.9452 54.8676 52.7984 53.9023 54.8965C52.937 56.9945 52.4577 59.2834 52.5 61.5925V61.5925Z" fill="white"/>
</g>
<defs>
<clipPath id="clip0_2521_70">
<rect width="60" height="60" fill="white" transform="translate(20 20)"/>
</clipPath>
</defs>
</svg>
