<svg width="512" height="512" viewBox="0 0 512 512" fill="none" xmlns="http://www.w3.org/2000/svg">
<path d="M0 20C0 8.95431 8.95431 0 20 0H492C503.046 0 512 8.95431 512 20V492C512 503.046 503.046 512 492 512H20C8.95431 512 0 503.046 0 492V20Z" fill="#A11A06"/>
<g filter="url(#filter0_iii_4083_162)">
<path d="M256 87C353.205 87 432 165.806 432 263.023C432 335.721 387.93 398.139 325.045 424.982L280.728 309.687C297.43 300.833 308.8 283.266 308.8 263.023C308.8 233.856 285.163 210.216 256 210.216C226.837 210.216 203.2 233.856 203.2 263.023C203.2 283.266 214.587 300.833 231.29 309.705L186.973 425C124.07 398.121 80 335.721 80 263.023C80 165.806 158.795 87 256 87Z" fill="#F9C174"/>
</g>
<defs>
<filter id="filter0_iii_4083_162" x="76" y="87" width="360" height="353" filterUnits="userSpaceOnUse" color-interpolation-filters="sRGB">
<feFlood flood-opacity="0" result="BackgroundImageFix"/>
<feBlend mode="normal" in="SourceGraphic" in2="BackgroundImageFix" result="shape"/>
<feColorMatrix in="SourceAlpha" type="matrix" values="0 0 0 0 0 0 0 0 0 0 0 0 0 0 0 0 0 0 127 0" result="hardAlpha"/>
<feOffset dy="15"/>
<feGaussianBlur stdDeviation="7.5"/>
<feComposite in2="hardAlpha" operator="arithmetic" k2="-1" k3="1"/>
<feColorMatrix type="matrix" values="0 0 0 0 0 0 0 0 0 0 0 0 0 0 0 0 0 0 0.35 0"/>
<feBlend mode="normal" in2="shape" result="effect1_innerShadow_4083_162"/>
<feColorMatrix in="SourceAlpha" type="matrix" values="0 0 0 0 0 0 0 0 0 0 0 0 0 0 0 0 0 0 127 0" result="hardAlpha"/>
<feOffset dx="7"/>
<feGaussianBlur stdDeviation="2"/>
<feComposite in2="hardAlpha" operator="arithmetic" k2="-1" k3="1"/>
<feColorMatrix type="matrix" values="0 0 0 0 0 0 0 0 0 0 0 0 0 0 0 0 0 0 0.25 0"/>
<feBlend mode="normal" in2="effect1_innerShadow_4083_162" result="effect2_innerShadow_4083_162"/>
<feColorMatrix in="SourceAlpha" type="matrix" values="0 0 0 0 0 0 0 0 0 0 0 0 0 0 0 0 0 0 127 0" result="hardAlpha"/>
<feOffset dx="-7"/>
<feGaussianBlur stdDeviation="2"/>
<feComposite in2="hardAlpha" operator="arithmetic" k2="-1" k3="1"/>
<feColorMatrix type="matrix" values="0 0 0 0 0 0 0 0 0 0 0 0 0 0 0 0 0 0 0.25 0"/>
<feBlend mode="normal" in2="effect2_innerShadow_4083_162" result="effect3_innerShadow_4083_162"/>
</filter>
</defs>
</svg>
